<svg width="512" height="512" viewBox="0 0 512 512" fill="none" xmlns="http://www.w3.org/2000/svg">
  <defs>
    <linearGradient id="greenWave" x1="120" y1="300" x2="400" y2="220" gradientUnits="userSpaceOnUse">
      <stop offset="0%" stop-color="#0B5E3C"/>
      <stop offset="100%" stop-color="#17814E"/>
    </linearGradient>
  </defs>

  <!-- Globe -->
  <circle cx="256" cy="256" r="178" stroke="#1D5FBF" stroke-width="18" fill="white"/>

  <!-- Latitude lines -->
  <ellipse cx="256" cy="256" rx="150" ry="58" stroke="#1D5FBF" stroke-width="10" fill="none"/>
  <ellipse cx="256" cy="256" rx="168" ry="108" stroke="#1D5FBF" stroke-width="10" fill="none"/>

  <!-- Longitude lines -->
  <path d="M256 78C215 120 188 184 188 256C188 328 215 392 256 434"
        stroke="#1D5FBF" stroke-width="10" fill="none"/>
  <path d="M256 78C297 120 324 184 324 256C324 328 297 392 256 434"
        stroke="#1D5FBF" stroke-width="10" fill="none"/>

  <!-- Green swooshes -->
  <path d="M88 238C152 186 244 182 348 204C396 214 438 232 470 250"
        stroke="url(#greenWave)" stroke-width="34" stroke-linecap="round" fill="none"/>

  <path d="M78 298C150 246 254 240 354 260C402 270 438 288 464 304"
        stroke="url(#greenWave)" stroke-width="34" stroke-linecap="round" fill="none"/>

  <path d="M98 348C168 302 258 300 338 316C374 324 404 336 432 352"
        stroke="url(#greenWave)" stroke-width="30" stroke-linecap="round" fill="none"/>
</svg>

